<svg id="header-d3c533c187c710c1bedbd8e293815d5f" xmlns="http://www.w3.org/2000/svg" width="230" height="28.201" viewBox="0 0 230 28.201">
  <path id="Path_36" data-name="Path 36" d="M7.834,13.61C5.922,13.373,5.2,13.074,5.2,12.324c0-.716.6-1.224,1.765-1.224a1.747,1.747,0,0,1,2,1.557h4.845C13.452,8.917,10.762,7.6,6.9,7.6,3.283,7.6.2,9.278.2,12.747c0,3.26,1.765,4.484,5.951,5.025,2.155.3,2.9.66,2.9,1.4,0,.778-.6,1.286-1.912,1.286-1.523,0-2.036-.626-2.211-1.765H0c.118,3.469,2.719,5.324,7.18,5.324,4.337,0,7.09-1.675,7.09-5.381-.006-3.356-2.1-4.49-6.436-5.031Z" transform="translate(0 -0.903)" fill="#fff"/>
  <path id="Path_37" data-name="Path 37" d="M25.5,20.1c-2.036,0-3.08-1.4-3.08-4.129v-.237c0-2.634,1.105-3.976,2.989-3.976a2.307,2.307,0,0,1,2.51,2.273h5.026c-.3-4.755-3.83-6.43-7.654-6.43-4.608,0-8.342,2.989-8.342,8.2v.237c0,5.262,3.559,7.987,8.224,7.987,5.054,0,7.716-2.572,7.863-6.52H28.223A2.6,2.6,0,0,1,25.5,20.1Z" transform="translate(-2.012 -0.903)" fill="#fff"/>
  <path id="Path_38" data-name="Path 38" d="M37.043,8.077H42.4V23.717H37.043Z" transform="translate(-4.397 -0.959)" fill="#fff"/>
  <path id="Path_39" data-name="Path 39" d="M39.669.1a2.771,2.771,0,1,0,0,5.533A2.8,2.8,0,0,0,42.63,2.883,2.82,2.82,0,0,0,39.669.1Z" transform="translate(-4.361 -0.012)" fill="#fff"/>
  <path id="Path_40" data-name="Path 40" d="M53.381,7.6c-4.727,0-8.466,3.17-8.466,8.2v.237c0,5.116,3.587,7.987,8.494,7.987,4.727,0,7.445-2,7.925-5.533H56.309c-.209,1.049-.959,1.856-2.719,1.856-1.912,0-3.108-1.2-3.26-3.26H61.34v-1.4c0-5.629-3.677-8.077-7.958-8.077Zm-2.989,6.458c.271-1.884,1.376-2.933,2.989-2.933,1.737,0,2.662,1.049,2.752,2.933Z" transform="translate(-5.332 -0.903)" fill="#fff"/>
  <path id="Path_41" data-name="Path 41" d="M76.026,7.6a5.515,5.515,0,0,0-5.144,2.933V8.026H65.53V23.667h5.353V14.9c0-2,1.077-2.961,2.662-2.961,1.557,0,2.245.869,2.245,2.634v9.092h5.353V13.492c0-4-2.1-5.888-5.116-5.888Z" transform="translate(-7.779 -0.903)" fill="#fff"/>
  <path id="Path_42" data-name="Path 42" d="M91.627,17.745V11.287h3.08V7.638h-3.08V4.378H86.274v3.26H84.39v3.649h1.884v6.966c0,3.677,1.974,5.381,5.5,5.381a11.44,11.44,0,0,0,2.961-.446V19.121a4.049,4.049,0,0,1-1.523.271C92.191,19.392,91.627,18.884,91.627,17.745Z" transform="translate(-10.018 -0.52)" fill="#fff"/>
  <path id="Path_43" data-name="Path 43" d="M98.221,8.077h5.353V23.717H98.221Z" transform="translate(-11.659 -0.959)" fill="#fff"/>
  <path id="Path_44" data-name="Path 44" d="M100.84.1a2.771,2.771,0,1,0,0,5.533A2.8,2.8,0,0,0,103.8,2.883,2.82,2.82,0,0,0,100.84.1Z" transform="translate(-11.622 -0.012)" fill="#fff"/>
  <path id="Path_45" data-name="Path 45" d="M107.83,5.742V7.118h-1.974v3.649h1.974V22.759h5.324V10.767h3.17V7.118h-3.17V5.742a1.561,1.561,0,0,1,1.765-1.7,4.618,4.618,0,0,1,1.4.18V.3a8.933,8.933,0,0,0-2.391-.3c-3.677,0-6.1,1.856-6.1,5.742Z" transform="translate(-12.566 0)" fill="#fff"/>
  <path id="Path_46" data-name="Path 46" d="M121.736.1a2.771,2.771,0,1,0,0,5.533A2.8,2.8,0,0,0,124.7,2.883,2.82,2.82,0,0,0,121.736.1Z" transform="translate(-14.102 -0.012)" fill="#fff"/>
  <path id="Path_47" data-name="Path 47" d="M119.11,8.077h5.353V23.717H119.11Z" transform="translate(-14.139 -0.959)" fill="#fff"/>
  <path id="Path_48" data-name="Path 48" d="M135.539,20.1c-2.036,0-3.08-1.4-3.08-4.129v-.237c0-2.634,1.105-3.976,2.989-3.976a2.307,2.307,0,0,1,2.51,2.273h5.026c-.3-4.755-3.83-6.43-7.654-6.43-4.608,0-8.342,2.989-8.342,8.2v.237c0,5.262,3.559,7.987,8.224,7.987,5.054,0,7.716-2.572,7.863-6.52h-4.817a2.6,2.6,0,0,1-2.719,2.6Z" transform="translate(-15.074 -0.903)" fill="#fff"/>
  <path id="Path_49" data-name="Path 49" d="M159.57,10.849V8.04h-2.482V23.681h2.482V15.1c0-3.858,2-4.845,5.144-4.992V7.77a5.47,5.47,0,0,0-5.144,3.08Z" transform="translate(-18.647 -0.922)" fill="#fff"/>
  <path id="Path_50" data-name="Path 50" d="M174.034,7.77c-4.309,0-7.327,3.288-7.327,8.015v.237c0,4.817,3.142,7.925,7.564,7.925,3.531,0,6.131-1.647,6.667-4.783h-2.482c-.327,1.822-1.737,2.724-4.157,2.724-3.2,0-4.907-1.974-5.025-5.533h11.783v-.807c.006-5.6-3.407-7.778-7.022-7.778Zm-4.665,6.582c.417-2.781,2.121-4.518,4.665-4.518,2.572,0,4.247,1.286,4.484,4.518Z" transform="translate(-19.789 -0.922)" fill="#fff"/>
  <path id="Path_51" data-name="Path 51" d="M193.979,7.77a6.45,6.45,0,0,0-5.3,2.9V8.035H186.2V29.124h2.482V21.109a5.931,5.931,0,0,0,5.3,2.843c4.309,0,7.118-3.288,7.118-8.077v-.237c0-4.879-3.023-7.868-7.118-7.868Zm4.54,8.224c0,3.8-1.675,5.894-4.783,5.894-3.051,0-5.144-1.884-5.144-5.894v-.237c0-4,2.211-5.922,5.116-5.922,2.634,0,4.817,1.974,4.817,5.922v.237Z" transform="translate(-22.103 -0.922)" fill="#fff"/>
  <path id="Path_52" data-name="Path 52" d="M212.879,7.77c-4.428,0-7.688,3.288-7.688,7.987v.237c0,4.574,3.2,7.953,7.654,7.953s7.716-3.26,7.716-7.987v-.237C220.566,11.03,217.306,7.77,212.879,7.77Zm5.116,8.224c0,3.531-1.974,5.894-5.116,5.894-3.17,0-5.116-2.335-5.116-5.894v-.237c0-3.587,1.974-5.922,5.116-5.922,3.108,0,5.116,2.335,5.116,5.951Z" transform="translate(-24.357 -0.922)" fill="#fff"/>
  <path id="Path_53" data-name="Path 53" d="M228.3,10.849V8.04h-2.482V23.681H228.3V15.1c0-3.858,2-4.845,5.144-4.992V7.77a5.47,5.47,0,0,0-5.144,3.08Z" transform="translate(-26.806 -0.922)" fill="#fff"/>
  <path id="Path_54" data-name="Path 54" d="M240.854,19.081V9.69H244.5V7.6h-3.649V4.038h-2.482V7.6h-2.245V9.69h2.245v9.628c0,2.454,1.376,4.129,4.219,4.129a6.015,6.015,0,0,0,2.121-.327V21.027a5.1,5.1,0,0,1-1.912.327c-1.258,0-1.946-.75-1.946-2.273Z" transform="translate(-28.029 -0.479)" fill="#fff"/>
  <path id="Path_55" data-name="Path 55" d="M253.875,14.561c-2.871-.508-3.649-1.077-3.649-2.482,0-1.348,1.168-2.245,2.961-2.245,1.974,0,2.933.75,3.288,2.454h2.391c-.417-3.379-2.843-4.518-5.652-4.518-2.454,0-5.3,1.495-5.3,4.394,0,2.724,1.376,3.858,5.443,4.608,2.42.446,3.649.987,3.649,2.634,0,1.675-1.049,2.482-3.407,2.482-2.51,0-3.5-1.168-3.677-3.023h-2.42c.152,3.2,2.391,5.082,6.131,5.082,3.8,0,5.742-1.912,5.742-4.755,0-3.316-2.273-4.033-5.5-4.631Z" transform="translate(-29.38 -0.922)" fill="#fff"/>
</svg>
